<?xml version="1.0" encoding="UTF-8" standalone="no"?>
<svg
   xmlns:dc="http://purl.org/dc/elements/1.1/"
   xmlns:cc="http://creativecommons.org/ns#"
   xmlns:rdf="http://www.w3.org/1999/02/22-rdf-syntax-ns#"
   xmlns:svg="http://www.w3.org/2000/svg"
   xmlns="http://www.w3.org/2000/svg"
   xmlns:sodipodi="http://sodipodi.sourceforge.net/DTD/sodipodi-0.dtd"
   xmlns:inkscape="http://www.inkscape.org/namespaces/inkscape"
   id="b9a78677-c6ff-4166-85e2-4e2750d12f14"
   data-name="Layer 1"
   width="835"
   height="673.72177"
   viewBox="0 0 835 673.72177"
   version="1.1"
   sodipodi:docname="empty.svg"
   inkscape:version="0.92.4 5da689c313, 2019-01-14">
  <metadata
     id="metadata103">
    <rdf:RDF>
      <cc:Work
         rdf:about="">
        <dc:format>image/svg+xml</dc:format>
        <dc:type
           rdf:resource="http://purl.org/dc/dcmitype/StillImage" />
        <dc:title>bookshelves</dc:title>
      </cc:Work>
    </rdf:RDF>
  </metadata>
  <defs
     id="defs101" />
  <sodipodi:namedview
     pagecolor="#ffffff"
     bordercolor="#666666"
     borderopacity="1"
     objecttolerance="10"
     gridtolerance="10"
     guidetolerance="10"
     inkscape:pageopacity="0"
     inkscape:pageshadow="2"
     inkscape:window-width="1366"
     inkscape:window-height="711"
     id="namedview99"
     showgrid="false"
     inkscape:zoom="0.62336265"
     inkscape:cx="334.47169"
     inkscape:cy="450.07718"
     inkscape:window-x="0"
     inkscape:window-y="29"
     inkscape:window-maximized="1"
     inkscape:current-layer="b9a78677-c6ff-4166-85e2-4e2750d12f14" />
  <title
     id="title2">bookshelves</title>
  <rect
     x="49.77062"
     width="338"
     height="597"
     fill="#3f3d56"
     id="rect4" />
  <ellipse
     cx="417.5"
     cy="599.92154"
     rx="417.5"
     ry="9.69734"
     fill="#3f3d56"
     id="ellipse6" />
  <ellipse
     cx="417.5"
     cy="631.99735"
     rx="289.03846"
     ry="6.71354"
     fill="#3f3d56"
     id="ellipse8" />
  <ellipse
     cx="417.63207"
     cy="661.08936"
     rx="235.78148"
     ry="5.47653"
     fill="#3f3d56"
     id="ellipse10" />
  <rect
     x="49.77062"
     y="114.5"
     width="338"
     height="2"
     fill="#d0cde1"
     id="rect12" />
  <rect
     x="49.77062"
     y="236.5"
     width="338"
     height="2"
     fill="#d0cde1"
     id="rect14" />
  <rect
     x="49.77062"
     y="358.5"
     width="338"
     height="2"
     fill="#d0cde1"
     id="rect16" />
  <rect
     x="49.77062"
     y="480.5"
     width="338"
     height="2"
     fill="#d0cde1"
     id="rect18" />
  <path
     d="M965.19223,230.61838A13.70673,13.70673,0,1,1,978.899,216.91165,13.72243,13.72243,0,0,1,965.19223,230.61838Zm0-25.129a11.42227,11.42227,0,1,0,11.42227,11.42227A11.435,11.435,0,0,0,965.19223,205.48938Z"
     transform="translate(-182.5 -113.13912)"
     fill="#3f3d56"
     id="path24" />
  <path
     d="M989.94463,628.1821H967.39576V605.63323h22.54887Zm-20.81434-1.73452H988.2101V607.36776H969.13029Z"
     transform="translate(-182.5 -113.13912)"
     fill="#3f3d56"
     id="path26" />
  <path
     d="M626.6911,274.71348l-15.38019-16.48943,16.48943-15.38019,15.38019,16.48943Zm-12.92868-16.4041,13.014,13.95259L640.729,259.248l-13.014-13.95259Z"
     transform="translate(-182.5 -113.13912)"
     fill="#3f3d56"
     id="path28" />
  <polygon
     points="687.908 364.153 656.188 402.64 703.133 458.044 734.43 421.249 687.908 364.153"
     fill="#35b2d3"
     id="polygon30" />
  <polygon
     points="687.908 364.153 656.188 402.64 703.133 458.044 734.43 421.249 687.908 364.153"
     opacity="0.1"
     id="polygon32" />
  <path
     d="M839.95668,516.20231h0a15.9424,15.9424,0,0,1,2.58625-3.45319l29.13369-29.53554s10.15038-1.69172,12.265,3.38346L846.7236,517.04817Z"
     transform="translate(-182.5 -113.13912)"
     fill="#f2f2f2"
     id="path34" />
  <path
     d="M838.47642,515.56791l43.13911,65.97746s4.22932,2.96053,8.45865,1.2688l44.19644-29.81674-46.9455-71.05265-42.29325,32.98873Z"
     transform="translate(-182.5 -113.13912)"
     fill="#35b2d3"
     id="path36" />
  <rect
     x="864.7219"
     y="516.88589"
     width="34.97082"
     height="12.96671"
     transform="translate(-324.39203 468.75916) rotate(-33.94952)"
     fill="#3f3d56"
     id="rect38" />
  <path
     d="M874.77062,461.63912s4,30-10,29-7-27-7-27Z"
     transform="translate(-182.5 -113.13912)"
     fill="#ffb8b8"
     id="path40" />
  <path
     d="M764.77062,353.63912l-17-2v-2l-16-2s-35,66-33,108,29,226,29,226,42-4,48-16l-7-41-4-49s27,137,39,137,47-7,44-12-39-159-39-159l-4-75-9-110Z"
     transform="translate(-182.5 -113.13912)"
     fill="#2f2e41"
     id="path42" />
  <circle
     cx="596.27062"
     cy="112.5"
     r="28"
     fill="#ffb8b8"
     id="circle44" />
  <path
     d="M779.77062,244.63912s11,25,3,36,43-18,43-18-25-24-26-35Z"
     transform="translate(-182.5 -113.13912)"
     fill="#ffb8b8"
     id="path46" />
  <path
     d="M825.77062,258.63912s-26,16-47,10l-52,85,86,16,19-108Z"
     transform="translate(-182.5 -113.13912)"
     fill="#d0cde1"
     id="path48" />
  <path
     d="M813.77062,255.63912s4-5,9-2,37,4,39,17-48,211-48,211l-8-2s9-3-26-12-40-39-32-75,11-58,11-58Z"
     transform="translate(-182.5 -113.13912)"
     fill="#575a89"
     id="path50" />
  <path
     d="M785.06589,262.54651s-35.29527,15.09261-36.29527,20.09261-39,95-39,95l-8,7,4,3-29,64s1,8,16,8h9s15-76,25-90S801.36117,275.45391,785.06589,262.54651Z"
     transform="translate(-182.5 -113.13912)"
     fill="#575a89"
     id="path52" />
  <path
     d="M848.77062,265.63912s13-4,16,22,2,43,2,43l13,136-28,3-25-153Z"
     transform="translate(-182.5 -113.13912)"
     fill="#575a89"
     id="path54" />
  <path
     d="M735.77062,674.63912s0,20-9,23-36,27-4,26,29-16,29-16v-4l8,4,16-4s5-35,0-38S735.77062,674.63912,735.77062,674.63912Z"
     transform="translate(-182.5 -113.13912)"
     fill="#2f2e41"
     id="path56" />
  <path
     d="M810.77062,707.63912s1,30-11,44-25,33-9,35,45-10,44-17,0-9,0-9h5l8-6s5-49-4-53S810.77062,707.63912,810.77062,707.63912Z"
     transform="translate(-182.5 -113.13912)"
     fill="#2f2e41"
     id="path58" />
  <path
     d="M724.77062,329.63912l7-10s13-12,22-6-16.84673,23.4033-16.84673,23.4033H729.702l-2.93141,2.00221Z"
     transform="translate(-182.5 -113.13912)"
     fill="#ffb8b8"
     id="path60" />
  <circle
     cx="580.77062"
     cy="236"
     r="4"
     fill="#2f2e41"
     id="circle62" />
  <circle
     cx="579.77062"
     cy="251"
     r="4"
     fill="#2f2e41"
     id="circle64" />
  <path
     d="M714.77062,342.63912l12-23s.14622,21.24174,7.57311,21.62087l-15.57311,22.37913Z"
     transform="translate(-182.5 -113.13912)"
     fill="#575a89"
     id="path66" />
  <path
     d="M742.32041,217.37419s-16.17271-45.81886,36.54611-40.97562c0,0,33.89223-14.05024,54.93967,27.598l21.65007,43.7463-6.37708-1.88167-1.41244,6.39024-8.74926,4.33-5.64686-7.00833.13394,9.95453-74.16014,23.82816s29.63108-27.36121,22.4441-63.45194l-4.99805,8.22027Z"
     transform="translate(-182.5 -113.13912)"
     fill="#2f2e41"
     id="path68" />
  <path
     d="M498.27062,568.03912v11.05a10.92106,10.92106,0,0,1-10.76563,11.05H456.03624a10.92106,10.92106,0,0,1-10.76562-11.05v-11.05a10.921,10.921,0,0,1,10.76562-11.05h9.9375v-.85h11.59375v.85h9.9375A10.921,10.921,0,0,1,498.27062,568.03912Z"
     transform="translate(-182.5 -113.13912)"
     fill="#35b2d3"
     id="path70" />
  <path
     d="M496.27062,551.13912h-12v-17h-6v-8.78a4.16869,4.16869,0,0,0,1.41.23c3.22,0,8.23-2.69,12.54-6.17a27.58655,27.58655,0,0,0,8.42-12.79l.37-1.35-1.39.08a27.511,27.511,0,0,0-14.3,5.5,34.91082,34.91082,0,0,0-7.05,7.41v-12.63c2.63-1.77,4-8.16,4-14.5a27.50477,27.50477,0,0,0-4.69-14.58l-.81-1.13-.81,1.13a27.50477,27.50477,0,0,0-4.69,14.58c0,7.1,1.72,14.26995,5,14.93v28.07h-6v17h-12a13.01242,13.01242,0,0,0-13,13v13a13.01247,13.01247,0,0,0,13,13h38a13.01247,13.01247,0,0,0,13-13v-13A13.01242,13.01242,0,0,0,496.27062,551.13912Zm-9.7-38.73005a25.45421,25.45421,0,0,1,11.64-4.87,25.33624,25.33624,0,0,1-7.24,10.33c-6.09,4.9-11.45,6.51-12.32,5.42C477.77062,522.20912,480.49059,517.31911,486.57061,512.40907Zm-13.3-21.27a25.4018,25.4018,0,0,1,3.5-12.12,25.327,25.327,0,0,1,3.5,12.12c0,7.82-2.11,13-3.5,13S473.27062,498.95912,473.27062,491.13912Zm34,86a11.00657,11.00657,0,0,1-11,11h-38a11.00657,11.00657,0,0,1-11-11v-13a11.00656,11.00656,0,0,1,11-11h14v-17h10v17h14a11.00656,11.00656,0,0,1,11,11Z"
     transform="translate(-182.5 -113.13912)"
     fill="#d0cde1"
     id="path72" />
</svg>
