<svg xmlns="http://www.w3.org/2000/svg" viewBox="0 0 512 441.538"><path d="M390.085 131.141h74.897c12.441 0 22.527 10.085 22.527 22.526v215.71c0 12.441-10.085 22.527-22.527 22.527h-74.897c-12.441 0-22.527-10.085-22.527-22.527V153.668c.001-12.44 10.086-22.527 22.527-22.527z" fill="#d388bd"/><path d="M386.739 369.378v-215.71c0-12.441 10.085-22.527 22.526-22.527h-19.18c-12.441 0-22.526 10.085-22.526 22.527v215.71c0 12.441 10.085 22.526 22.526 22.526h19.18c-12.441.001-22.526-10.084-22.526-22.526z" fill="#c476b2"/><path d="M367.553 163.173h119.954v15.673H367.553zm0 181.018h119.954v15.673H367.553zm86.103-127.89h-52.245a7.837 7.837 0 01-7.837-7.837 7.837 7.837 0 017.837-7.837h52.245a7.837 7.837 0 017.837 7.837 7.837 7.837 0 01-7.837 7.837z" fill="#ad609f"/><path d="M60.21 132.146h41.636c12.441 0 22.526 10.085 22.526 22.526v214.707c0 12.441-10.085 22.527-22.526 22.527H60.21c-12.441 0-22.526-10.085-22.526-22.527V154.671c-.001-12.44 10.085-22.525 22.526-22.525z" fill="#ef6e4b"/><path d="M60.95 367.697V156.354c0-13.371 10.839-24.209 24.209-24.209H61.892c-13.371 0-24.209 10.839-24.209 24.209v211.342c0 13.371 10.839 24.208 24.209 24.208h23.267c-13.37.001-24.209-10.838-24.209-24.207z" fill="#db5b3e"/><path d="M81.029 323.493a8.422 8.422 0 01-8.422-8.422V208.98a8.422 8.422 0 018.422-8.422 8.422 8.422 0 018.422 8.422v106.09a8.423 8.423 0 01-8.422 8.423z" fill="#bc432f"/><path d="M158.117 0h35.613c12.441 0 22.526 10.085 22.526 22.526v346.385c0 12.441-10.085 22.527-22.526 22.527h-35.613c-12.441 0-22.527-10.085-22.527-22.527V22.527C135.59 10.087 145.675 0 158.117 0z" fill="#46bee8"/><path d="M154.77 368.912V22.527C154.77 10.086 164.855 0 177.296 0h-19.18c-12.441 0-22.526 10.085-22.526 22.527v346.385c0 12.441 10.085 22.526 22.526 22.526h19.18c-12.44.001-22.526-10.084-22.526-22.526z" fill="#35b2d3"/><path d="M189.308 51.471h-26.77a7.837 7.837 0 01-7.837-7.837 7.837 7.837 0 017.837-7.837h26.77a7.837 7.837 0 017.837 7.837 7.837 7.837 0 01-7.837 7.837zm0 27.067h-26.77a7.837 7.837 0 01-7.837-7.837 7.837 7.837 0 017.837-7.837h26.77a7.837 7.837 0 017.837 7.837 7.837 7.837 0 01-7.837 7.837zm0 27.066h-26.77a7.837 7.837 0 01-7.837-7.837 7.837 7.837 0 017.837-7.837h26.77a7.837 7.837 0 017.837 7.837 7.837 7.837 0 01-7.837 7.837z" fill="#047fa0"/><path d="M333.299 53.261l34.436 9.079c12.03 3.171 19.21 15.495 16.039 27.525l-75.206 285.251c-3.171 12.03-15.495 19.21-27.525 16.039l-34.436-9.079c-12.03-3.171-19.21-15.495-16.039-27.525l75.207-285.252c3.171-12.029 15.495-19.21 27.524-16.038z" fill="#efd873"/><path d="M249.114 359.441l75.207-285.252c3.171-12.03 15.495-19.211 27.525-16.039L333.3 53.26c-12.03-3.171-24.353 4.009-27.525 16.039L230.568 354.55c-3.171 12.03 4.009 24.353 16.039 27.525l18.546 4.89c-12.03-3.171-19.21-15.494-16.039-27.524z" fill="#e0c865"/><path d="M352.343 111.243a7.882 7.882 0 01-2.003-.261l-25.886-6.824a7.837 7.837 0 01-5.58-9.575 7.834 7.834 0 019.575-5.58l25.886 6.824a7.837 7.837 0 01-1.992 15.416zm-6.902 26.172a7.877 7.877 0 01-2.003-.261l-25.885-6.824a7.837 7.837 0 013.995-15.155l25.885 6.824a7.837 7.837 0 01-1.992 15.416z" fill="#ccb65c"/><path d="M495.678 441.538H16.322C7.308 441.538 0 434.23 0 425.215v-18.556c0-9.014 7.308-16.322 16.322-16.322h479.356c9.014 0 16.322 7.308 16.322 16.322v18.556c0 9.015-7.308 16.323-16.322 16.323z" fill="#ba7052"/></svg>
